<svg width="24" height="24" viewBox="0 0 24 24" fill="none" xmlns="http://www.w3.org/2000/svg">
<path d="M20.7825 3.21751C20.6813 3.11677 20.5534 3.04701 20.4139 3.01646C20.2744 2.9859 20.1291 2.9958 19.995 3.04501L3.495 9.04501C3.3527 9.09898 3.23019 9.19497 3.14374 9.32023C3.05729 9.44548 3.01099 9.59407 3.01099 9.74626C3.01099 9.89845 3.05729 10.047 3.14374 10.1723C3.23019 10.2975 3.3527 10.3935 3.495 10.4475L10.695 13.3275L13.575 20.5275C13.6291 20.6636 13.7219 20.7808 13.8418 20.8648C13.9618 20.9487 14.1037 20.9957 14.25 21C14.4016 20.9969 14.5486 20.9479 14.6718 20.8596C14.795 20.7712 14.8885 20.6476 14.94 20.505L20.94 4.00501C20.9911 3.87232 21.0034 3.72783 20.9755 3.5884C20.9477 3.44897 20.8807 3.32034 20.7825 3.21751ZM14.25 18.15L12.1575 12.9L15.75 9.30751L14.6925 8.25001L11.07 11.8725L5.85 9.75001L18.9975 5.00251L14.25 18.15Z" fill="#FCFCFC"/>
</svg>
