<svg width="32" height="32" viewBox="0 0 32 32" fill="none" xmlns="http://www.w3.org/2000/svg">
<path d="M19.608 5.75066H12.392C11.5197 5.75031 10.6558 5.92185 9.84985 6.25546C9.04385 6.58908 8.31149 7.07824 7.69461 7.695C7.07773 8.31176 6.58842 9.04402 6.25464 9.84995C5.92086 10.6559 5.74915 11.5197 5.74933 12.392V19.608C5.74898 20.4804 5.92056 21.3444 6.25426 22.1504C6.58796 22.9565 7.07724 23.689 7.69414 24.3059C8.31104 24.9228 9.04346 25.412 9.84954 25.7457C10.6556 26.0794 11.5196 26.251 12.392 26.2507H19.608C20.4804 26.251 21.3444 26.0794 22.1504 25.7457C22.9565 25.412 23.689 24.9228 24.3059 24.3059C24.9228 23.689 25.412 22.9565 25.7457 22.1504C26.0794 21.3444 26.251 20.4804 26.2507 19.608V12.392C26.251 11.5196 26.0794 10.6556 25.7457 9.84954C25.412 9.04346 24.9228 8.31104 24.3059 7.69414C23.689 7.07724 22.9565 6.58796 22.1504 6.25426C21.3444 5.92056 20.4804 5.74898 19.608 5.74933V5.75066Z" stroke="#333333" stroke-width="1.5"/>
<path d="M26.1413 20.784H28.3C28.6624 20.784 29.0101 20.64 29.2664 20.3837C29.5227 20.1274 29.6666 19.7798 29.6666 19.4173V12.584C29.6666 12.2215 29.5227 11.8739 29.2664 11.6176C29.0101 11.3613 28.6624 11.2173 28.3 11.2173H26.14M5.85998 20.784H3.69998C3.52051 20.784 3.34279 20.7486 3.17698 20.68C3.01117 20.6113 2.86051 20.5106 2.7336 20.3837C2.60669 20.2568 2.50603 20.1061 2.43734 19.9403C2.36866 19.7745 2.33331 19.5968 2.33331 19.4173V12.584C2.33331 12.2215 2.4773 11.8739 2.7336 11.6176C2.9899 11.3613 3.33752 11.2173 3.69998 11.2173H5.85998" stroke="#333333" stroke-width="1.5"/>
<path d="M3.68665 11.2173V5.75067M28.3 11.2173L28.2866 5.75067M13.2666 20.316C13.9934 21.0374 14.9759 21.4422 16 21.4422C17.024 21.4422 18.0065 21.0374 18.7333 20.316M10.5066 14.6333L11.8706 13.2667L13.2373 14.6333M18.7066 14.6333L20.0733 13.2667L21.4386 14.6333" stroke="#333333" stroke-width="1.5" stroke-linecap="round" stroke-linejoin="round"/>
</svg>
